<?xml version="1.0" standalone="no"?>
<!DOCTYPE svg PUBLIC "-//W3C//DTD SVG 20010904//EN"
 "http://www.w3.org/TR/2001/REC-SVG-20010904/DTD/svg10.dtd">
<svg version="1.0" xmlns="http://www.w3.org/2000/svg"
 width="1024.000000pt" height="237.000000pt" viewBox="0 0 1024.000000 237.000000"
 preserveAspectRatio="xMidYMid meet">

<g transform="translate(0.000000,237.000000) scale(0.100000,-0.100000)"
fill="#000000" stroke="none">
<path d="M806 2362 c-2 -4 -18 -62 -35 -128 -48 -188 -107 -314 -254 -534
-123 -185 -232 -314 -307 -364 -13 -9 -39 -16 -58 -16 -76 0 -112 61 -112 194
0 155 65 331 161 440 58 64 88 72 115 30 37 -55 8 -259 -47 -328 -30 -38 -10
-79 20 -42 24 29 69 174 74 241 11 126 -32 207 -100 191 -70 -18 -182 -189
-235 -359 -32 -104 -33 -274 0 -334 54 -103 152 -107 257 -11 69 63 188 220
275 363 114 188 143 230 147 218 2 -6 -14 -101 -36 -210 -23 -109 -44 -225
-47 -259 -8 -74 8 -131 42 -146 34 -16 60 6 114 91 114 182 127 188 122 60 -4
-97 9 -124 65 -135 29 -6 38 -2 71 32 21 22 50 54 64 73 l26 35 15 -36 c25
-60 92 -59 185 4 l42 29 10 -25 c20 -54 82 -57 137 -8 16 16 55 62 86 104 56
75 77 98 77 81 0 -5 -16 -85 -35 -178 -43 -209 -55 -353 -32 -408 18 -43 30
-46 51 -15 20 27 23 79 4 60 -7 -7 -16 -12 -22 -12 -11 0 -1 172 17 255 l12
60 55 8 c79 11 206 74 187 93 -4 4 -42 -5 -85 -19 -146 -51 -165 -32 -81 80
73 96 99 114 99 68 0 -30 15 -33 30 -6 14 27 13 47 -6 65 -25 25 -42 19 -100
-35 -49 -47 -54 -50 -54 -28 0 38 28 148 56 221 27 72 29 123 4 123 -10 0 -29
-39 -56 -118 -23 -65 -64 -152 -90 -193 -63 -102 -160 -206 -188 -202 -40 6
-30 42 29 109 57 64 66 92 29 97 -28 4 -76 -37 -108 -92 -45 -78 -187 -155
-212 -115 -3 6 9 27 29 47 58 61 74 115 42 142 -32 26 -63 3 -130 -99 -132
-202 -193 -213 -179 -33 6 75 4 89 -10 101 -29 25 -75 -7 -141 -99 -91 -126
-113 -148 -125 -130 -14 20 -7 75 51 400 26 151 66 339 89 418 46 163 49 192
21 192 -11 0 -22 -4 -25 -8z m434 -798 c0 -18 -68 -90 -76 -81 -10 9 5 43 31
71 27 30 45 34 45 10z"/>
<path d="M7727 2146 c-16 -17 -48 -127 -82 -286 -26 -126 -50 -176 -118 -248
-70 -73 -98 -87 -151 -73 -22 6 -57 12 -76 14 -32 2 -35 -1 -48 -38 -20 -59
-13 -187 12 -214 43 -47 87 -9 122 106 25 81 26 83 70 103 25 11 65 41 89 67
24 26 46 45 48 43 2 -3 0 -42 -5 -88 -12 -102 -5 -144 32 -185 25 -28 31 -30
56 -22 22 8 40 31 76 100 26 50 48 98 48 108 0 35 -25 11 -67 -63 -54 -94 -67
-107 -87 -91 -23 19 -30 93 -17 194 11 86 24 130 112 372 37 104 46 207 18
213 -9 2 -23 -4 -32 -12z m-369 -681 c4 -33 -22 -108 -44 -126 -23 -19 -34 5
-34 73 0 52 2 59 28 72 35 20 46 16 50 -19z"/>
<path d="M8626 2128 c-8 -13 -24 -61 -36 -108 -29 -118 -39 -139 -73 -157 -43
-22 -191 -14 -230 12 -20 13 -31 15 -39 7 -31 -31 46 -62 157 -62 47 0 85 -2
85 -5 0 -22 -128 -222 -203 -319 -30 -38 -30 -38 -93 -34 -100 6 -123 40 -85
125 22 48 97 133 117 133 21 0 17 -19 -21 -93 -37 -72 -41 -87 -25 -87 14 0
90 158 90 186 0 31 -24 47 -58 39 -59 -12 -182 -216 -163 -267 14 -37 56 -66
107 -74 24 -3 44 -11 44 -18 0 -6 -11 -28 -25 -48 -28 -42 -31 -58 -11 -58 22
0 70 64 209 276 140 214 167 245 137 158 -9 -26 -57 -280 -127 -668 -31 -177
-22 -233 33 -212 15 6 15 8 -1 26 -24 26 -19 78 40 390 52 279 111 530 128
547 14 13 326 39 352 29 17 -6 17 -7 0 -26 -18 -19 -17 -20 7 -20 31 0 51 21
46 52 -5 39 -50 43 -223 23 -85 -10 -158 -16 -161 -12 -4 3 8 57 26 119 17 62
32 124 33 137 3 32 -18 38 -37 9z"/>
<path d="M9386 2010 c-14 -45 -37 -132 -52 -195 -14 -63 -35 -127 -45 -144
-24 -40 -137 -132 -209 -170 -32 -17 -61 -31 -64 -31 -16 0 -2 72 35 186 40
123 46 174 21 182 -16 5 -35 -43 -63 -158 -37 -161 -61 -198 -136 -213 -37 -7
-43 3 -43 68 0 24 -4 47 -10 50 -5 3 -24 -15 -42 -41 -55 -79 -79 -104 -99
-104 -22 0 -25 32 -8 94 7 25 7 42 1 48 -16 16 -43 -35 -49 -94 -4 -44 -2 -57
15 -78 l20 -25 37 20 c20 10 49 34 65 53 l27 33 13 -30 c13 -33 20 -36 97 -46
29 -4 55 -10 58 -14 2 -4 -7 -79 -20 -167 -35 -225 -32 -334 10 -334 20 0 52
65 71 147 16 64 24 303 13 359 -3 18 17 36 124 107 114 77 127 83 127 62 0
-29 -36 -75 -59 -75 -32 0 -33 -14 -2 -40 l30 -25 -35 -165 c-38 -184 -46
-330 -20 -366 15 -19 15 -19 36 1 22 22 70 179 95 309 21 111 20 177 -5 209
-29 37 -26 48 11 35 23 -8 45 -8 83 1 57 13 168 69 174 89 6 20 -21 14 -81
-18 -71 -39 -146 -50 -171 -24 -31 30 -18 112 37 230 82 180 111 345 60 352
-19 3 -25 -6 -47 -78z m-86 -686 c0 -106 -56 -334 -82 -334 -18 0 15 234 52
368 15 59 30 43 30 -34z m-290 -43 c0 -79 -24 -227 -44 -274 l-14 -32 -1 60
c-1 52 15 186 35 292 10 54 24 27 24 -46z"/>
<path d="M3053 1958 c-6 -7 -25 -56 -42 -109 -44 -132 -44 -133 -133 -137 -59
-3 -78 -1 -91 12 -15 16 -77 22 -90 10 -13 -14 15 -44 51 -54 20 -5 70 -10
110 -10 39 0 72 -3 72 -7 0 -17 -108 -207 -158 -278 -60 -86 -93 -108 -120
-81 -14 13 -17 38 -19 128 -1 61 -5 113 -7 116 -10 10 -38 -23 -98 -115 -34
-51 -67 -93 -74 -93 -33 0 -23 111 15 176 13 21 16 36 9 47 -9 17 -38 24 -38
9 0 -12 -122 -42 -169 -42 -46 0 -52 -12 -17 -35 37 -24 38 -42 7 -77 -20 -22
-33 -29 -46 -24 -15 5 -17 13 -10 54 12 70 11 105 -1 109 -23 8 -53 -112 -40
-161 7 -29 32 -56 52 -56 25 0 92 70 105 108 14 46 18 50 56 61 l31 9 -5 -78
c-7 -96 0 -127 32 -142 31 -14 52 3 101 84 20 32 40 58 45 58 5 0 9 -20 9 -45
0 -87 46 -153 97 -141 40 11 86 65 161 192 36 63 69 114 73 114 3 0 4 -10 2
-22 -2 -13 -24 -133 -48 -268 -47 -257 -55 -358 -30 -415 15 -38 40 -54 57
-37 7 7 3 17 -12 32 -22 22 -23 28 -17 139 9 186 100 645 135 684 15 17 29 18
127 15 95 -2 110 -1 113 13 4 22 -26 29 -135 29 -72 0 -93 3 -93 14 0 7 16 48
36 90 34 75 41 126 18 133 -6 2 -16 -2 -21 -9z"/>
<path d="M5210 1758 c-11 -24 -20 -48 -20 -54 0 -18 -77 -101 -114 -123 -37
-23 -77 -27 -108 -10 -54 29 -96 -27 -126 -169 -13 -67 -14 -83 -3 -96 21 -25
40 -19 81 22 34 34 61 89 74 152 4 19 18 32 53 47 26 12 62 31 78 42 l31 20
-4 -34 c-4 -31 -8 -35 -33 -35 -34 0 -36 -9 -9 -40 26 -30 25 -51 -5 -226 -14
-80 -25 -167 -25 -194 0 -63 26 -130 50 -130 40 0 80 188 80 381 l0 116 50 7
c53 7 132 58 138 89 5 25 -10 21 -68 -18 -53 -35 -108 -46 -139 -26 -23 15 -6
107 34 186 41 81 49 127 22 133 -12 2 -23 -9 -37 -40z m-250 -253 c0 -61 -67
-184 -85 -156 -8 13 10 113 26 144 23 43 59 51 59 12z m223 -147 c11 -71 -33
-348 -55 -348 -7 0 -9 34 -5 108 6 110 34 272 47 272 4 0 10 -15 13 -32z"/>
<path d="M3324 1635 c-30 -65 -25 -92 33 -176 l35 -51 -40 -42 c-53 -55 -68
-84 -48 -92 24 -9 84 34 126 91 33 45 117 125 131 125 3 0 3 -18 1 -40 -6 -55
4 -87 29 -95 34 -11 64 19 100 99 l34 76 66 22 c79 25 104 20 95 -20 -17 -75
-18 -138 -3 -151 23 -18 53 -5 89 40 17 21 35 39 40 39 4 0 8 -20 8 -44 0 -28
6 -48 16 -57 14 -12 24 -5 74 51 l57 64 8 -34 c9 -42 41 -80 69 -80 11 0 43
24 72 54 l53 54 11 -34 c28 -83 130 -63 248 50 23 22 42 44 42 48 0 15 -27 8
-45 -13 -11 -11 -46 -38 -78 -60 -94 -62 -160 -49 -94 19 42 44 57 72 57 105
0 63 -66 59 -107 -6 -40 -62 -143 -177 -159 -177 -7 0 -16 16 -19 38 -13 77
-17 92 -26 97 -15 10 -45 -13 -85 -65 -21 -27 -42 -50 -46 -50 -5 0 -5 24 -2
54 9 77 -6 80 -75 12 -81 -80 -92 -76 -70 25 21 97 -5 114 -122 84 -57 -15
-61 -15 -86 5 -31 24 -61 26 -70 3 -4 -11 1 -22 15 -31 13 -8 22 -25 22 -39 0
-46 -47 -133 -73 -133 -16 0 0 68 24 101 20 28 20 32 5 47 -14 15 -19 14 -58
-7 -24 -13 -64 -41 -91 -63 -56 -46 -74 -44 -105 11 -26 46 -28 102 -6 141 19
31 13 60 -11 60 -10 0 -26 -22 -41 -55z m1156 -71 c0 -18 -68 -90 -76 -81 -10
9 5 43 31 71 27 30 45 34 45 10z"/>
<path d="M6832 1645 c-63 -53 -107 -198 -73 -239 32 -39 103 -28 202 29 31 18
65 36 76 39 19 6 20 3 16 -36 -10 -87 61 -118 105 -46 42 68 37 147 -11 169
-21 9 -31 6 -78 -30 -67 -51 -203 -121 -234 -121 -35 0 -49 24 -41 71 7 45 41
119 55 119 12 0 21 -26 21 -61 0 -35 13 -37 34 -7 29 41 12 129 -25 136 -9 2
-30 -9 -47 -23z m310 -176 c-3 -35 -29 -85 -39 -75 -10 9 -5 74 7 97 17 30 35
17 32 -22z"/>
<path d="M6231 1607 c-29 -48 -129 -140 -142 -131 -6 4 -9 20 -6 39 3 17 2 37
-3 44 -12 21 -45 8 -48 -19 -5 -30 -44 -84 -79 -107 -36 -24 -45 -4 -38 80 8
90 -8 98 -74 33 l-47 -46 -11 30 c-6 17 -16 30 -22 30 -6 0 -28 -16 -50 -35
-21 -19 -41 -35 -44 -35 -3 0 -3 27 0 60 5 50 3 60 -10 60 -30 0 -51 -142 -25
-168 17 -17 20 -16 69 22 42 34 43 34 57 15 18 -26 44 -24 72 6 13 14 27 25
30 25 4 0 10 -21 13 -46 6 -55 34 -89 66 -79 11 3 37 24 57 45 36 38 38 39 51
20 21 -30 49 -24 101 23 91 82 86 83 78 -3 -10 -108 -33 -185 -71 -242 -62
-89 -106 -280 -76 -326 14 -23 45 -9 64 29 9 20 35 108 57 195 25 100 49 172
65 196 32 49 114 113 201 158 72 37 92 60 52 60 -30 0 -131 -60 -197 -117 -53
-46 -75 -54 -67 -25 7 25 25 150 28 197 4 53 -22 59 -51 12z m-81 -536 c-23
-78 -48 -109 -36 -46 11 57 49 153 54 133 2 -9 -6 -48 -18 -87z"/>
<path d="M9764 1477 c-15 -39 2 -61 96 -129 156 -111 227 -186 280 -296 94
-195 75 -376 -51 -468 -82 -60 -477 -233 -573 -250 l-39 -7 60 79 c78 104 85
117 74 147 -11 29 -33 46 -38 30 -2 -6 -28 -42 -57 -79 -29 -38 -61 -85 -71
-104 -10 -19 -42 -67 -71 -106 -57 -76 -61 -88 -40 -117 11 -14 19 -16 33 -9
23 13 207 -77 270 -132 23 -20 47 -34 53 -31 41 25 -46 110 -185 182 l-95 49
23 32 c24 34 37 41 37 17 0 -21 64 -20 131 4 75 26 275 113 387 168 166 81
237 176 249 330 4 62 1 96 -16 163 -51 205 -143 318 -432 529 -16 11 -20 11
-25 -2z"/>
</g>
</svg>
