<?xml version="1.0" standalone="no"?>
<!DOCTYPE svg PUBLIC "-//W3C//DTD SVG 20010904//EN"
 "http://www.w3.org/TR/2001/REC-SVG-20010904/DTD/svg10.dtd">
<svg version="1.0" xmlns="http://www.w3.org/2000/svg"
 width="512.000000pt" height="512.000000pt" viewBox="0 0 512.000000 512.000000"
 preserveAspectRatio="xMidYMid meet">

<g transform="translate(0.000000,512.000000) scale(0.100000,-0.100000)"
fill="#000000" stroke="none">
<path d="M2350 5104 c-746 -68 -1402 -434 -1847 -1029 -493 -659 -634 -1541
-372 -2325 349 -1044 1329 -1750 2429 -1750 855 0 1662 433 2131 1143 271 408
407 835 426 1327 18 487 -104 964 -355 1388 -76 128 -245 362 -262 362 -3 0
-5 -420 -5 -933 0 -928 0 -932 -23 -1043 -67 -334 -184 -604 -367 -849 -78
-106 -279 -305 -385 -384 -232 -172 -486 -285 -780 -349 -117 -25 -141 -27
-380 -27 -239 0 -263 2 -380 27 -294 64 -548 177 -780 349 -106 79 -307 278
-385 384 -178 238 -296 505 -358 809 -19 98 -22 141 -22 356 1 228 3 254 28
373 140 655 575 1175 1187 1418 230 90 448 131 710 131 228 0 405 -27 608 -93
l62 -21 0 -832 c0 -512 -4 -875 -11 -942 -16 -164 -52 -316 -99 -411 -67 -136
-188 -227 -367 -275 -104 -27 -318 -30 -412 -5 -244 66 -389 255 -445 580 l-7
37 -319 0 -320 0 0 -44 c0 -57 25 -201 52 -296 50 -183 152 -361 283 -499 129
-135 260 -222 424 -282 366 -133 884 -108 1214 57 373 188 562 518 622 1089
12 114 15 331 15 1177 l0 1037 -83 45 c-246 134 -551 235 -847 281 -101 16
-480 28 -580 19z"/>
</g>
</svg>
